<svg width="268" height="245" viewBox="0 0 268 245" fill="none" xmlns="http://www.w3.org/2000/svg">
<g clip-path="url(#clip0)">
<path d="M132.816 245C187.826 245 232.42 240.761 232.42 235.531C232.42 230.301 187.826 226.062 132.816 226.062C77.8066 226.062 33.2124 230.301 33.2124 235.531C33.2124 240.761 77.8066 245 132.816 245Z" fill="#55A9F3"/>
<path fill-rule="evenodd" clip-rule="evenodd" d="M107.974 25.3837C101.238 11.097 86.6656 1.22925 69.826 1.22925C51.0523 1.22925 35.1464 13.4892 29.711 30.4007C17.5398 31.1648 7.80283 40.8665 7.90286 53.4919C7.90286 54.688 132.783 54.3226 132.783 53.4919C132.849 34.3544 126.247 25.2176 111.075 25.2176C110.041 25.2176 109.007 25.284 107.974 25.3837Z" fill="#BBDFFF"/>
<path fill-rule="evenodd" clip-rule="evenodd" d="M173.998 16.7121C178.667 6.84432 188.737 0 200.408 0C213.413 0 224.417 8.47233 228.185 20.2007C236.588 20.6991 243.357 27.4437 243.257 36.1819C243.257 37.0125 156.792 36.7467 156.792 36.1819C156.758 22.9251 161.327 16.6124 171.831 16.6124C172.564 16.6124 173.298 16.6456 173.998 16.7121Z" fill="#55A9F3"/>
<path fill-rule="evenodd" clip-rule="evenodd" d="M17.7045 100.987L24.9739 108.23C25.9075 109.16 27.3748 109.16 28.3084 108.23C29.2421 107.3 29.2421 105.838 28.3084 104.908L21.0057 97.6977C20.072 96.7674 18.6048 96.7674 17.6711 97.6977C16.7708 98.5948 16.7708 100.09 17.7045 100.987Z" fill="#5EACF2"/>
<path fill-rule="evenodd" clip-rule="evenodd" d="M24.9738 97.6977L17.7044 104.941C16.7707 105.871 16.7707 107.333 17.7044 108.263C18.6381 109.194 20.1053 109.194 21.039 108.263L28.3417 101.02C29.2754 100.09 29.2754 98.628 28.3417 97.6977C27.3747 96.7674 25.9075 96.7674 24.9738 97.6977Z" fill="#5EACF2"/>
<path fill-rule="evenodd" clip-rule="evenodd" d="M220.7 176.053L228.003 183.296C228.937 184.227 230.404 184.227 231.337 183.296C232.271 182.366 232.271 180.904 231.337 179.974L224.068 172.698C223.134 171.767 221.667 171.767 220.734 172.698C219.8 173.628 219.8 175.123 220.7 176.053Z" fill="#5EACF2"/>
<path fill-rule="evenodd" clip-rule="evenodd" d="M228.003 172.731L220.7 180.007C219.767 180.937 219.767 182.399 220.7 183.33C221.634 184.26 223.101 184.26 224.035 183.33L231.304 176.087C232.238 175.156 232.238 173.694 231.304 172.764C230.404 171.801 228.903 171.801 228.003 172.731Z" fill="#5EACF2"/>
<path fill-rule="evenodd" clip-rule="evenodd" d="M245.625 64.8217L252.894 72.0648C253.828 72.9951 255.295 72.9951 256.229 72.0648C257.163 71.1345 257.163 69.6726 256.229 68.7423L248.926 61.466C247.993 60.5357 246.525 60.5357 245.592 61.466C244.691 62.3963 244.691 63.8915 245.625 64.8217Z" fill="#5EACF2"/>
<path fill-rule="evenodd" clip-rule="evenodd" d="M252.894 61.4995L245.592 68.7758C244.658 69.7061 244.658 71.168 245.592 72.0983C246.525 73.0286 247.993 73.0286 248.926 72.0983L256.229 64.8552C257.163 63.9249 257.163 62.4631 256.229 61.5328C255.329 60.5692 253.828 60.5692 252.894 61.4995Z" fill="#5EACF2"/>
<path d="M100.938 180.378C100.704 191.408 100.304 212.074 100.304 212.074C100.171 219.085 105.806 224.899 112.842 225.065L146.054 225.73C153.09 225.862 158.926 220.247 159.093 213.237C159.093 213.237 159.493 192.571 159.726 181.541C157.959 182.305 156.158 182.936 154.358 183.434C144.487 186.325 134.684 186.126 130.249 186.059C124.98 185.959 112.209 185.694 100.938 180.378Z" fill="#55A9F3"/>
<path d="M115.51 225.098C117.644 230.613 122.946 234.567 129.248 234.7C135.551 234.833 141.019 231.079 143.353 225.63L115.51 225.098Z" fill="#1D87E4"/>
<path fill-rule="evenodd" clip-rule="evenodd" d="M144.821 228.022C141.82 233.504 135.917 237.192 129.215 237.059C121.946 236.926 115.777 232.341 113.309 225.962C112.842 224.766 113.442 223.404 114.676 222.938C115.877 222.473 117.244 223.071 117.711 224.301C119.511 228.952 123.98 232.308 129.315 232.408C134.617 232.507 139.252 229.351 141.219 224.766C141.586 223.902 142.487 223.337 143.42 223.337L146.088 223.404C151.823 223.503 156.592 218.952 156.725 213.237L156.959 201.376C156.992 200.08 158.059 199.05 159.36 199.083C160.66 199.116 161.694 200.179 161.66 201.475C161.46 212.506 161.427 213.337 161.427 213.337C161.26 221.609 154.324 228.288 145.988 228.122L144.821 228.022Z" fill="#0E5FAA"/>
<path fill-rule="evenodd" clip-rule="evenodd" d="M106.606 220.414C104.172 218.453 102.605 215.43 102.672 212.107C102.672 212.107 103.072 191.442 103.305 180.444C103.339 179.148 102.305 178.085 101.004 178.052C99.7038 178.019 98.6368 179.049 98.6034 180.345C98.37 191.375 97.9699 212.041 97.9699 212.041C97.8698 216.892 100.137 221.278 103.672 224.102C104.672 224.899 106.173 224.733 106.973 223.736C107.807 222.706 107.64 221.244 106.606 220.414Z" fill="#0E5FAA"/>
<path d="M70.2261 96.7509C70.1594 100.771 70.4596 104.692 71.1265 108.512C71.5933 110.772 72.1268 113.064 72.7271 115.39C80.1632 143.93 96.8361 175.593 100.938 180.378C112.175 185.694 124.947 185.926 130.215 186.059C135.45 186.159 148.222 186.425 159.66 181.541C159.693 181.541 159.693 181.541 159.693 181.541C163.994 176.922 181.901 145.957 190.438 117.716C191.138 115.423 191.772 113.164 192.305 110.905C193.105 107.117 193.572 103.196 193.672 99.1763C194.339 65.2205 167.262 37.1455 133.15 36.481C108.107 35.9826 86.2655 50.4354 76.1617 71.5664C72.527 79.2082 70.3929 87.7469 70.2261 96.7509Z" fill="#BBDFFF"/>
<path fill-rule="evenodd" clip-rule="evenodd" d="M78.5294 71.6659L73.8276 71.4998C73.8276 71.1675 73.9277 70.8685 74.0611 70.5695C84.565 48.6079 107.24 33.6235 133.216 34.1551C168.63 34.8528 196.74 63.991 196.04 99.2425C195.973 103.396 195.473 107.482 194.639 111.403L194.072 112.433L194.639 111.469C194.072 113.762 193.439 116.054 192.739 118.38C184.069 147.02 165.795 178.417 161.46 183.135C160.593 184.099 159.093 184.132 158.126 183.268C157.159 182.404 157.125 180.909 157.992 179.946C162.227 175.394 179.8 144.86 188.237 117.018C188.904 114.759 189.537 112.532 190.071 110.34L190.104 110.273C190.871 106.685 191.305 102.93 191.371 99.1096C192.005 66.4496 165.962 39.4378 133.15 38.8065C109.041 38.3414 88.0329 52.2294 78.296 72.563L78.5294 71.6659Z" fill="#0E5FAA"/>
<path fill-rule="evenodd" clip-rule="evenodd" d="M68.7924 108.844C68.0921 104.924 67.792 100.87 67.8587 96.7174C67.892 95.4216 68.9591 94.3916 70.2596 94.4249C71.5601 94.4581 72.5938 95.5213 72.5604 96.817C72.4937 100.671 72.7939 104.459 73.4274 108.113C73.8943 110.306 74.3944 112.566 74.9947 114.825C82.3307 142.933 98.7035 174.164 102.738 178.882C103.572 179.879 103.472 181.341 102.472 182.172C101.471 183.002 100.004 182.903 99.137 181.906C94.9688 177.055 77.9624 144.96 70.4263 115.988C69.8261 113.629 69.2925 111.303 68.7924 109.011C68.7924 108.944 68.7924 108.878 68.7924 108.844Z" fill="#0E5FAA"/>
<path d="M153.624 125.258C154.924 125.258 156.258 125.025 157.559 124.56C163.328 122.4 166.229 116.021 164.095 110.273C162.294 105.456 160.393 100.704 158.392 95.9533C156.425 91.2022 154.191 86.5507 152.023 81.866C150.99 79.507 149.723 77.2477 148.555 74.922C147.388 72.5963 146.221 70.3037 144.887 68.0445C142.353 63.4594 139.719 58.9741 136.651 54.5884C135.917 53.5584 134.684 52.8939 133.316 52.9604C131.249 53.0933 129.648 54.8542 129.782 56.9474C130.115 62.2633 130.782 67.4464 131.616 72.5963C131.983 75.1878 132.483 77.7129 132.983 80.2712C133.516 82.7963 133.917 85.3878 134.55 87.8797C135.684 92.6308 136.751 97.4152 138.052 102.133C131.682 102 125.347 101.967 118.978 102.1L117.711 102.133C116.61 102.166 115.51 102.366 114.409 102.764C109.041 104.725 106.24 110.639 108.207 116.021C109.708 120.108 111.208 124.228 112.909 128.248C114.609 132.301 116.143 136.388 118.044 140.375C119.811 144.395 121.679 148.382 123.713 152.336C125.714 156.29 127.814 160.21 130.182 164.031C130.849 165.127 132.116 165.858 133.516 165.825C135.584 165.759 137.218 164.031 137.151 161.971C137.018 157.452 136.618 153.034 136.117 148.648C135.617 144.262 135.017 139.877 134.25 135.557C133.717 131.869 132.983 128.281 132.249 124.66L153.624 125.258Z" fill="#1D87E4"/>
</g>
<defs>
<clipPath id="clip0">
<rect width="268" height="245" fill="white"/>
</clipPath>
</defs>
</svg>
