<svg width="268" height="262" viewBox="0 0 268 262" fill="none" xmlns="http://www.w3.org/2000/svg">
<g clip-path="url(#clip0)">
<path d="M142.95 262C199.928 262 246.117 257.005 246.117 250.843C246.117 244.682 199.928 239.687 142.95 239.687C85.9728 239.687 39.7834 244.682 39.7834 250.843C39.7834 257.005 85.9728 262 142.95 262Z" fill="#55A9F3"/>
<path fill-rule="evenodd" clip-rule="evenodd" d="M193.182 17.9747C198.187 7.36488 209.037 0 221.568 0C235.523 0 247.359 9.11495 251.414 21.73C260.438 22.2769 267.708 29.496 267.598 38.9026C267.598 39.7776 174.77 39.5224 174.77 38.9026C174.697 24.6833 179.592 17.8653 190.881 17.8653C191.648 17.8653 192.451 17.9018 193.182 17.9747Z" fill="#55A9F3"/>
<path fill-rule="evenodd" clip-rule="evenodd" d="M122.31 27.3083C115.076 11.9588 99.4406 1.3125 81.3206 1.3125C61.1549 1.3125 44.0578 14.5109 38.2127 32.7044C25.1707 33.5065 14.6859 43.934 14.8321 57.5335C14.8321 58.8096 148.942 58.4085 148.942 57.5335C149.015 36.9702 141.928 27.126 125.634 27.126C124.538 27.126 123.406 27.1989 122.31 27.3083Z" fill="#BBDFFF"/>
<path fill-rule="evenodd" clip-rule="evenodd" d="M255.616 202.826L263.58 210.81C264.603 211.831 266.21 211.831 267.233 210.81C268.256 209.79 268.256 208.185 267.233 207.164L259.232 199.18C258.21 198.159 256.602 198.159 255.579 199.18C254.593 200.201 254.593 201.841 255.616 202.826Z" fill="#55A9F3"/>
<path fill-rule="evenodd" clip-rule="evenodd" d="M263.58 199.18L255.579 207.164C254.556 208.185 254.556 209.79 255.579 210.81C256.602 211.831 258.21 211.831 259.232 210.81L267.196 202.826C268.219 201.805 268.219 200.201 267.196 199.18C266.247 198.195 264.603 198.195 263.58 199.18Z" fill="#55A9F3"/>
<path fill-rule="evenodd" clip-rule="evenodd" d="M0.767166 95.634L8.76771 103.582C9.79061 104.603 11.398 104.603 12.4209 103.582C13.4438 102.561 13.4438 100.957 12.4209 99.9363L4.38385 91.9881C3.36095 90.9672 1.75353 90.9672 0.730634 91.9881C-0.255735 93.0089 -0.255735 94.6132 0.767166 95.634Z" fill="#55A9F3"/>
<path fill-rule="evenodd" clip-rule="evenodd" d="M8.73119 91.9882L0.767176 99.9729C-0.255725 100.994 -0.255725 102.598 0.767176 103.619C1.79008 104.64 3.39749 104.64 4.42039 103.619L12.4209 95.6706C13.4438 94.6498 13.4438 93.0455 12.4209 92.0247C11.3615 91.0038 9.75409 91.0038 8.73119 91.9882Z" fill="#55A9F3"/>
<path fill-rule="evenodd" clip-rule="evenodd" d="M223.212 64.3516L231.212 72.2998C232.235 73.3207 233.842 73.3207 234.865 72.2998C235.888 71.2789 235.888 69.6747 234.865 68.6538L226.865 60.7056C225.842 59.6847 224.234 59.6847 223.212 60.7056C222.189 61.7265 222.189 63.3307 223.212 64.3516Z" fill="#55A9F3"/>
<path fill-rule="evenodd" clip-rule="evenodd" d="M231.212 60.7056L223.212 68.6538C222.189 69.6747 222.189 71.2789 223.212 72.2998C224.234 73.3207 225.842 73.3207 226.865 72.2998L234.829 64.3516C235.852 63.3307 235.852 61.7265 234.829 60.7056C233.842 59.6847 232.198 59.6847 231.212 60.7056Z" fill="#55A9F3"/>
<path d="M82.4531 76.1646L94.6549 237.937C95.1298 245.229 101.377 251.172 108.537 251.172H172.907C180.067 251.172 186.314 245.229 186.826 237.937L199.027 76.1646H82.4531Z" fill="#BBDFFF"/>
<path d="M172.907 253.724H108.537C100.025 253.724 92.6091 246.833 92.0611 238.337L79.8594 79.6645C79.7498 78.2425 80.8092 77.0029 82.2339 76.8935C83.6587 76.7841 84.9008 77.8415 85.0104 79.2634L97.2121 237.973C97.5775 243.843 102.655 248.583 108.537 248.583H172.907C178.752 248.583 183.83 243.843 184.232 238.009L196.434 79.2634C196.543 77.8415 197.785 76.7841 199.21 76.8935C200.635 77.0029 201.694 78.2425 201.585 79.6645L189.383 238.374C188.835 246.833 181.419 253.724 172.907 253.724Z" fill="#0E5FAA"/>
<path d="M194.972 65.5911L191.355 58.4085C189.748 55.2001 185.51 52.575 181.894 52.575H100.39C96.8102 52.575 92.5725 55.2001 90.9651 58.4085L87.3484 65.5911H194.972Z" fill="#55A9F3"/>
<path d="M194.972 68.1798C194.022 68.1798 193.109 67.6693 192.671 66.7578L189.054 59.5753C187.885 57.2418 184.524 55.1636 181.93 55.1636H172.03C170.605 55.1636 169.436 53.9969 169.436 52.575C169.436 51.153 170.605 49.9863 172.03 49.9863H181.93C186.46 49.9863 191.648 53.1583 193.693 57.2418L197.31 64.4244C197.931 65.7005 197.42 67.2318 196.141 67.8881C195.739 68.1068 195.337 68.1798 194.972 68.1798Z" fill="#0E5FAA"/>
<path d="M171.993 55.1636H148.905C147.48 55.1636 146.311 53.9969 146.311 52.575C146.311 51.153 147.48 49.9863 148.905 49.9863H171.993C173.418 49.9863 174.587 51.153 174.587 52.575C174.587 53.9969 173.418 55.1636 171.993 55.1636Z" fill="#0E5FAA"/>
<path d="M94.5452 57.1325C93.705 57.1325 92.9013 56.7315 92.3898 56.0023C91.5861 54.8356 91.9149 53.2313 93.0839 52.4292C95.3855 50.8979 97.9793 50.0593 100.354 50.0593H148.905C150.33 50.0593 151.499 51.226 151.499 52.648C151.499 54.0699 150.33 55.2366 148.905 55.2366H100.39C99.0752 55.2366 97.4313 55.82 95.97 56.7679C95.5316 56.9867 95.0567 57.0961 94.5452 57.1325Z" fill="#0E5FAA"/>
<path d="M143.133 174.496C145.836 163.084 149.051 149.412 139.845 138.146C151.718 139.386 161.107 152.657 161.107 168.882C161.107 182.773 154.239 194.513 144.813 198.378C139.114 193.346 140.429 185.945 143.133 174.496Z" fill="#1D87E4"/>
<path d="M128.63 140.735C139.151 149.047 136.63 159.876 133.671 172.272C131.589 181.132 129.287 190.867 133.16 198.997C122.785 196.008 115.003 183.648 115.003 168.845C115.04 156.339 120.629 145.584 128.63 140.735Z" fill="#1D87E4"/>
<path d="M69.4111 72.1174C69.4111 75.6904 72.3337 78.6437 75.9139 78.6437H206.334C209.914 78.6437 212.836 75.6904 212.836 72.1174C212.836 68.5443 209.914 65.6275 206.334 65.6275H75.9139C72.3337 65.5911 69.4111 68.5443 69.4111 72.1174Z" fill="#1D87E4"/>
<path d="M206.37 81.196H173.455C172.03 81.196 170.861 80.0292 170.861 78.6073C170.861 77.1854 172.03 76.0187 173.455 76.0187H206.37C208.526 76.0187 210.316 74.2686 210.316 72.081C210.316 69.9299 208.562 68.1434 206.37 68.1434H181.784C180.359 68.1434 179.19 66.9766 179.19 65.5547C179.19 64.1328 180.359 62.9661 181.784 62.9661H206.37C211.375 62.9661 215.467 67.0496 215.467 72.0446C215.467 77.1125 211.375 81.196 206.37 81.196Z" fill="#0E5FAA"/>
<path d="M92.5359 81.1958H75.9503C70.9454 81.1958 66.8538 77.1123 66.8538 72.1173C66.8538 69.711 67.8036 67.414 69.5206 65.7004C71.2376 63.9868 73.5391 63.0388 75.9503 63.0388H115.588C117.012 63.0388 118.181 64.2055 118.181 65.6275C118.181 67.0494 117.012 68.2161 115.588 68.2161H75.9503C74.8908 68.2161 73.9045 68.6172 73.1738 69.3828C72.4432 70.112 72.0048 71.0964 72.0048 72.1538C72.0048 74.3414 73.7583 76.0914 75.9503 76.0914H92.5359C93.9606 76.0914 95.1297 77.2581 95.1297 78.6801C95.0931 80.0291 93.9606 81.1958 92.5359 81.1958Z" fill="#0E5FAA"/>
</g>
<defs>
<clipPath id="clip0">
<rect width="268" height="262" fill="white"/>
</clipPath>
</defs>
</svg>
