<svg width="372" height="414" viewBox="0 0 372 414" fill="none" xmlns="http://www.w3.org/2000/svg">
<g filter="url(#filter0_d)">
<path d="M235.478 242.533C222.208 237.637 204.967 234.679 186.118 234.679C167.269 234.679 150.028 237.637 136.758 242.533H110.236V267.339C110.236 285.378 144.209 300 186.118 300C228.027 300 262 285.378 262 267.339L261.759 242.533H235.478Z" fill="#F19F00"/>
<path d="M186 274.014C227.974 274.014 262 259.336 262 241.23C262 223.123 227.974 208.445 186 208.445C144.026 208.445 110 223.123 110 241.23C110 259.336 144.026 274.014 186 274.014Z" fill="#FCD33A"/>
<path d="M186.27 264.775C222.185 264.775 251.3 253.506 251.3 239.605C251.3 225.705 222.185 214.436 186.27 214.436C150.355 214.436 120.582 225.786 120.582 239.687C120.582 253.587 150.355 264.775 186.27 264.775Z" fill="#EF9C03"/>
<path d="M186.292 261.693C218.163 261.693 244 251.844 244 239.693C244 227.543 218.163 217.693 186.292 217.693C154.421 217.693 128 227.614 128 239.765C128 251.915 154.421 261.693 186.292 261.693Z" fill="#FCD33A"/>
<path d="M248.542 106.733C248.595 106.74 248.651 106.748 248.704 106.761C249.994 107.049 251.275 107.379 252.577 107.603C253.38 107.741 253.66 108.067 253.614 108.908C253.333 114.012 252.718 119.072 251.702 124.081C249.52 134.828 245.889 145.022 240.225 154.428C234.62 163.741 227.369 171.476 218.254 177.377C210.213 182.583 201.435 185.952 192.083 187.853C191.394 187.993 191.095 187.932 191.316 187.06C192.536 182.236 194.209 177.569 196.089 172.977C198.824 166.3 202.103 159.914 205.942 153.802C208.264 150.105 210.807 146.576 213.507 143.167C215.883 140.167 218.597 137.469 221.278 134.743C222.744 133.256 224.363 131.951 225.844 130.489C225.947 130.387 226.033 130.268 226.004 130.063C207.691 142.423 193.855 158.214 186.725 179.328C186.179 180.948 183.88 180.898 183.423 179.252C183.417 179.234 183.413 179.217 183.408 179.2C182.831 177.113 182.359 175.008 182.013 172.875C181.75 171.258 181.586 169.623 181.377 167.996C180.758 161.085 181.015 154.219 182.608 147.446C184.847 137.927 188.906 129.342 195.724 122.245C201.601 116.128 208.734 112.04 216.72 109.412C225.913 106.388 235.345 105.449 244.964 106.3C246.159 106.401 247.349 106.583 248.542 106.733Z" fill="#97C228"/>
<path d="M176.438 171.581C176.472 171.618 176.499 171.662 176.514 171.71C177.321 174.251 178.233 176.762 178.703 179.401C178.747 179.65 178.81 179.909 178.792 180.156C178.743 180.812 178.49 180.327 178.307 180.25C178.265 180.233 178.229 180.202 178.199 180.168C176.739 178.449 174.978 177.046 173.262 175.616C170.622 173.419 167.674 171.672 164.632 170.104C157.092 166.217 149.077 163.925 140.661 163.059C140.648 163.057 140.634 163.057 140.621 163.055C140.21 163.013 140.107 163.612 140.509 163.706C147.905 165.454 154.812 168.471 161.344 172.469C166.338 175.524 170.942 179.096 175.178 183.15C175.192 183.179 175.203 183.209 175.222 183.234C175.595 183.736 176.531 184.179 176.368 184.608C176.155 185.17 175.203 185.191 174.556 185.388C170.293 186.697 165.936 187.487 161.475 187.642C161.104 187.656 160.733 187.696 160.362 187.725C160.35 187.725 160.337 187.727 160.325 187.725C156.426 187.621 152.56 187.269 148.765 186.291C139.993 184.031 132.489 179.485 125.85 173.395C121.612 169.506 117.937 165.132 114.741 160.333C114.117 159.396 114.347 158.936 115.065 158.304C120.965 153.106 127.769 149.704 135.391 147.985C142.81 146.312 150.075 146.727 157.035 150.032C161.09 151.958 164.689 154.568 167.725 157.89C171.395 161.905 174.371 166.391 176.381 171.489C176.387 171.526 176.412 171.555 176.438 171.581Z" fill="#9FC533"/>
<path d="M193.324 171.652C184.434 187.123 179.143 206.852 180.69 234.679L189.517 233.895C184.367 214.79 186.896 193.72 193.324 171.652Z" fill="url(#paint0_linear)"/>
</g>
<defs>
<filter id="filter0_d" x="0" y="0" width="372" height="414" filterUnits="userSpaceOnUse" color-interpolation-filters="sRGB">
<feFlood flood-opacity="0" result="BackgroundImageFix"/>
<feColorMatrix in="SourceAlpha" type="matrix" values="0 0 0 0 0 0 0 0 0 0 0 0 0 0 0 0 0 0 127 0"/>
<feOffset dy="4"/>
<feGaussianBlur stdDeviation="55"/>
<feColorMatrix type="matrix" values="0 0 0 0 0.0494619 0 0 0 0 0.436639 0 0 0 0 0.770833 0 0 0 1 0"/>
<feBlend mode="normal" in2="BackgroundImageFix" result="effect1_dropShadow"/>
<feBlend mode="normal" in="SourceGraphic" in2="effect1_dropShadow" result="shape"/>
</filter>
<linearGradient id="paint0_linear" x1="189.152" y1="195.295" x2="186.873" y2="234.679" gradientUnits="userSpaceOnUse">
<stop offset="0.3" stop-color="#9CC322"/>
<stop offset="0.930208" stop-color="#F6D137"/>
</linearGradient>
</defs>
</svg>
