<svg width="268" height="234" viewBox="0 0 268 234" fill="none" xmlns="http://www.w3.org/2000/svg">
<path fill-rule="evenodd" clip-rule="evenodd" d="M124.984 214C175.749 214 217 218.477 217 224C217 229.523 175.782 234 124.984 234C74.1858 234 33 229.523 33 224C33 218.477 74.2183 214 124.984 214Z" fill="#55A9F3"/>
<path fill-rule="evenodd" clip-rule="evenodd" d="M170.297 15.9402C174.718 6.53127 184.27 0 195.339 0C207.666 0 218.121 8.08325 221.703 19.2705C229.674 19.7555 236.096 26.1574 235.999 34.4993C235.999 35.2753 154.001 35.049 154.001 34.4993C153.936 21.8894 158.293 15.8432 168.264 15.8432C168.942 15.8432 169.619 15.8755 170.297 15.9402Z" fill="#55A9F3"/>
<path fill-rule="evenodd" clip-rule="evenodd" d="M106.938 24.7895C100.445 11.3332 86.338 2 69.9895 2C51.7953 2 36.3698 13.5706 31.0961 29.5201C19.3292 30.2232 9.86952 39.3646 10.0014 51.2868C10.0014 52.4055 131 52.0539 131 51.2868C131.065 33.2597 124.671 24.6297 109.971 24.6297C108.949 24.6297 107.927 24.6937 106.938 24.7895Z" fill="#BBDFFF"/>
<path d="M265.69 136C265.104 136 264.518 135.771 264.063 135.313L262.143 133.381L260.223 135.313C259.312 136.229 257.881 136.229 256.97 135.313C256.058 134.396 256.058 132.956 256.97 132.039L258.889 130.108L256.97 128.177C256.058 127.26 256.058 125.82 256.97 124.903C257.881 123.987 259.312 123.987 260.223 124.903L262.143 126.835L264.063 124.903C264.974 123.987 266.406 123.987 267.317 124.903C268.228 125.82 268.228 127.26 267.317 128.177L265.397 130.108L267.317 132.039C268.228 132.956 268.228 134.396 267.317 135.313C266.861 135.771 266.275 136 265.69 136ZM11.4035 130.043C10.8179 130.043 10.2322 129.813 9.77664 129.355L7.85688 127.424L5.93713 129.355C5.02606 130.272 3.59437 130.272 2.6833 129.355C1.77223 128.439 1.77223 126.998 2.6833 126.082L4.60306 124.151L2.6833 122.219C1.77223 121.303 1.77223 119.863 2.6833 118.946C3.59437 118.029 5.02606 118.029 5.93713 118.946L7.85688 120.877L9.77664 118.946C10.6877 118.029 12.1194 118.029 13.0305 118.946C13.9415 119.863 13.9415 121.303 13.0305 122.219L11.1107 124.151L13.0305 126.082C13.9415 126.998 13.9415 128.439 13.0305 129.355C12.5749 129.813 11.9892 130.043 11.4035 130.043ZM128.671 67.784C128.086 67.784 127.5 67.5548 127.044 67.0966L125.125 65.1653L123.205 67.0966C122.294 68.0131 120.862 68.0131 119.951 67.0966C119.04 66.18 119.04 64.7398 119.951 63.8232L121.871 61.892L119.951 59.9607C119.04 59.0442 119.04 57.6039 119.951 56.6874C120.862 55.7709 122.294 55.7709 123.205 56.6874L125.125 58.6187L127.044 56.6874C127.955 55.7709 129.387 55.7709 130.298 56.6874C131.209 57.6039 131.209 59.0442 130.298 59.9607L128.378 61.892L130.298 63.8232C131.209 64.7398 131.209 66.18 130.298 67.0966C129.843 67.5548 129.257 67.784 128.671 67.784Z" fill="#55A9F3"/>
<path d="M150.611 186.032C146.086 186.032 143.824 189.006 145.614 192.625L156.25 214.407C156.317 214.504 156.351 214.633 156.419 214.73C158.309 218.221 163.307 221 167.696 221H185.389C189.914 221 192.176 218.059 190.386 214.407L185.794 205.003L179.75 192.593C177.995 188.973 172.828 186 168.304 186H150.611V186.032Z" fill="#1D87E4"/>
<path d="M184.269 224H167.19C162.073 224 156.5 220.645 154.251 216.216C154.218 216.182 154.153 216.048 154.12 215.948L154.055 215.813L143.788 193.2C142.68 190.75 142.745 188.234 143.951 186.288C145.255 184.174 147.732 183 150.731 183H167.81C173.09 183 178.859 186.59 180.945 191.187L191.212 213.8C192.32 216.25 192.255 218.766 191.049 220.712C189.745 222.792 187.268 224 184.269 224ZM150.731 187.731C149.362 187.731 148.286 188.133 147.83 188.838C147.374 189.61 147.7 190.65 147.96 191.187L158.325 213.968C159.792 216.887 163.866 219.269 167.19 219.269H184.269C185.638 219.269 186.714 218.867 187.17 218.162C187.626 217.39 187.3 216.384 187.04 215.813L176.773 193.2C175.436 190.281 171.265 187.731 167.81 187.731H150.731Z" fill="#0E5FAA"/>
<path d="M81.2193 186C76.7936 186 71.7404 188.973 70.0229 192.593L64.2431 204.68L59.5862 214.407C57.8688 218.027 60.0486 221 64.5073 221H81.8138C86.1734 221 91.1275 218.124 92.911 214.601C92.944 214.536 92.9771 214.472 93.0101 214.407L103.414 192.625C105.131 189.006 102.951 186.032 98.4927 186.032H81.2193V186Z" fill="#1D87E4"/>
<path d="M82.2872 224H65.568C62.6325 224 60.2076 222.792 58.9314 220.712C57.7508 218.766 57.687 216.25 58.7718 213.8L68.8225 191.187C70.8645 186.59 76.512 183 81.6809 183H98.432C101.367 183 103.792 184.208 105.069 186.322C106.249 188.268 106.313 190.784 105.228 193.233L95.1775 215.847C95.1775 215.881 95.1137 215.981 95.1137 216.015C92.9121 220.511 87.3284 224 82.2872 224ZM81.7128 187.731C78.3307 187.731 74.2466 190.281 72.9385 193.2L62.8878 215.847C62.6325 216.384 62.3135 217.424 62.7602 218.196C63.175 218.9 64.2279 219.303 65.5999 219.303H82.3191C85.6693 219.303 89.6576 216.854 91.0296 213.968L93.1355 214.874L91.1254 213.834L101.176 191.22C101.431 190.683 101.75 189.643 101.304 188.872C100.889 188.167 99.8359 187.764 98.4639 187.764H81.7128V187.731Z" fill="#0E5FAA"/>
<path d="M67.1463 74C64.7755 74.0326 63.3141 74.782 63.3141 75.9876C63.3465 79.5717 68.3369 99.3779 71 110C55.9634 119.188 45.1273 131.868 42.5291 147.312L38.2747 148.648C34.2801 149.886 31 154.187 31 158.13V173.248C31 177.224 34.2801 181.492 38.2747 182.73L55.3249 188.074C55.4548 188.204 55.5847 188.367 55.7146 188.497C57.0786 190.029 58.5725 191.495 60.1314 192.864C73.8039 205.18 93.9393 213 116.283 213H136.613C175.033 213 206.925 189.899 210.627 160.606C223.585 155.23 231.574 141.154 231.574 141.154C232.581 139.395 231.737 138.482 229.723 139.101C229.723 139.101 217.09 142.946 208.581 139.557C208.484 139.525 208.354 139.46 208.256 139.427C206.21 133.627 203.028 128.218 198.936 123.298C185.62 107.365 162.627 96.7757 136.581 96.7757H116.251C109.301 96.7757 102.546 97.5251 96.1477 98.9587C87.6714 80.0605 73.9988 74.1303 67.2762 74.0652H67.1463V74Z" fill="#55A9F3"/>
<path d="M199 123.851C183.278 112.008 160.833 104.598 135.854 104.598C88.3643 104.598 49.8724 125.566 49.8724 158.701C49.8724 178.568 53.6079 184.555 60.1369 193C58.4478 191.479 56.8237 189.894 55.3295 188.243L38.2761 182.969C34.2807 181.739 31 177.468 31 173.553V158.539C31 154.591 34.2807 150.352 38.2761 149.123L42.5313 147.796C45.1299 132.426 55.5893 118.933 70.6288 109.808C67.9652 99.259 63.3527 80.5237 63.3202 76.9644C63.2877 72.4666 84.5963 74.0198 96.1926 99.712C102.592 98.3206 109.348 97.544 116.299 97.544H136.633C162.684 97.5117 185.682 108.028 199 123.851Z" fill="#1D87E4"/>
<path d="M69 132.5C69 135.548 67.6415 138 66 138C64.3302 138 63 135.548 63 132.5C63 129.452 64.3585 127 66 127C67.6698 127 69 129.452 69 132.5Z" fill="#0E5FAA"/>
<path d="M136.576 215H116.304C108.597 215 101.019 214.091 93.7331 212.307C92.5026 212.015 91.7578 210.782 92.0492 209.549C92.3407 208.316 93.5712 207.569 94.8018 207.861C101.732 209.549 108.985 210.425 116.304 210.425H136.576C142.437 210.425 148.266 209.873 153.933 208.77C155.163 208.543 156.361 209.354 156.62 210.587C156.847 211.82 156.038 213.021 154.807 213.28C148.881 214.416 142.728 215 136.576 215ZM170.059 208.705C169.153 208.705 168.278 208.153 167.922 207.245C167.469 206.077 168.019 204.746 169.217 204.26C181.62 199.327 191.853 191.767 198.848 182.422C199.592 181.416 201.05 181.189 202.053 181.968C203.057 182.714 203.284 184.174 202.507 185.18C194.994 195.206 184.081 203.286 170.901 208.543C170.642 208.673 170.351 208.705 170.059 208.705ZM77.3151 206.271C76.9913 206.271 76.635 206.206 76.3112 206.044C69.7699 202.864 63.8762 198.938 58.7921 194.363C57.173 192.935 55.651 191.41 54.2909 189.885L37.8729 184.758C32.8859 183.201 29 178.106 29 173.142V158.086C29 153.121 32.8859 147.994 37.8729 146.469L40.7873 145.56C43.2484 133.165 50.7612 121.484 62.0628 112.528C63.0667 111.749 64.4915 111.912 65.2687 112.885C66.0459 113.891 65.884 115.319 64.9125 116.097C54.0643 124.696 47.0048 135.923 45.0295 147.702C44.8999 148.546 44.2847 149.26 43.4427 149.519L39.2006 150.85C36.189 151.791 33.5336 155.165 33.5336 158.118V173.174C33.5336 176.094 36.189 179.501 39.2006 180.442L56.2015 185.764C56.6225 185.894 56.9787 186.121 57.2378 186.445C57.3349 186.543 57.4321 186.673 57.5292 186.77C58.8569 188.263 60.2817 189.658 61.8037 191.021C66.564 195.304 72.1015 199.003 78.2542 201.988C79.3876 202.54 79.8733 203.903 79.3228 205.038C78.9666 205.785 78.157 206.271 77.3151 206.271ZM210.376 162.791C209.469 162.791 208.627 162.271 208.271 161.363C207.785 160.195 208.336 158.864 209.502 158.378C218.86 154.516 225.596 145.593 228.154 141.764C224.106 142.737 214.65 144.49 207.526 141.634C207.461 141.602 207.364 141.569 207.267 141.537C206.684 141.277 206.101 140.758 205.907 140.142C203.964 134.723 200.985 129.531 197.002 124.761C196.192 123.788 196.322 122.36 197.293 121.549C198.265 120.737 199.69 120.867 200.499 121.841C204.579 126.74 207.72 132.029 209.825 137.611C217.532 140.206 228.64 136.897 228.769 136.864C231.489 136.021 232.85 137.254 233.303 137.805C233.756 138.357 234.631 139.882 233.27 142.251C232.914 142.867 224.721 157.047 211.25 162.628C210.959 162.758 210.667 162.791 210.376 162.791ZM70.8061 111.457C69.7699 111.457 68.8632 110.776 68.6041 109.737C65.2687 96.4661 61.2856 79.9174 61.2209 76.2832C61.2209 74.823 62.0304 73.5575 63.4553 72.8112C64.4591 72.292 65.7544 72.0324 67.2764 72H67.4707C73.9473 72.0649 88.2928 77.2891 97.5543 96.4661C103.675 95.233 109.957 94.6165 116.304 94.6165C116.304 94.6165 131.977 94.5841 136.576 94.6165C137.838 94.649 167.048 95.4277 183.887 107.304C184.923 108.018 185.182 109.445 184.437 110.484C183.725 111.522 182.3 111.782 181.264 111.035C165.558 99.9705 136.802 99.1917 136.511 99.1917C131.945 99.1593 116.304 99.1917 116.304 99.1917C109.665 99.1917 103.092 99.9056 96.7447 101.301C95.6761 101.528 94.6075 101.009 94.1541 100.003C86.4794 82.9027 73.9797 76.6401 67.4383 76.5752H67.2764C66.564 76.5752 66.0783 76.6726 65.7868 76.7699C66.1106 80.1121 68.7336 91.826 72.9758 108.634C73.2996 109.867 72.5548 111.1 71.3243 111.425C71.1624 111.425 70.9681 111.457 70.8061 111.457Z" fill="#0E5FAA"/>
<path d="M205.648 60.8788L138.711 91.5053C135.141 93.1326 133 96.7128 133 100.423V100.488C133 101.823 133.292 103.19 133.876 104.491L147.406 134.272C149.029 137.852 152.598 140 156.297 140H156.329C157.659 140 159.055 139.707 160.352 139.121L227.289 108.495C230.891 106.867 233 103.287 233 99.5443V99.5118C233 98.1774 232.708 96.8104 232.124 95.5085L218.594 65.7282C216.971 62.1155 213.402 60 209.671 60C208.341 60 206.945 60.2929 205.648 60.8788Z" fill="#BBDFFF"/>
<path fill-rule="evenodd" clip-rule="evenodd" d="M172.085 104.275C174.83 110.058 181.949 112.592 187.983 109.96C194.017 107.329 196.661 100.507 193.915 94.7246C191.17 88.9421 184.051 86.4082 178.017 89.0395C171.983 91.6709 169.339 98.4929 172.085 104.275Z" fill="#55A9F3"/>
<path d="M218.589 65.7622L220 68.9703C219.498 69.3304 218.934 69.6578 218.338 69.9524C212.755 72.6041 206.168 70.0507 203.627 64.2236C203.345 63.6016 203.157 62.9796 203 62.3576L206.074 60.8844C210.81 58.6256 216.424 60.8517 218.589 65.7622Z" fill="#55A9F3"/>
<path d="M230.853 92L232.192 95.2546C234.244 100.269 232.251 106.214 227.759 108.506L224.844 110C224.517 109.469 224.22 108.871 223.952 108.24C221.542 102.328 223.863 95.3542 229.158 92.6642C229.693 92.3985 230.258 92.1661 230.853 92Z" fill="#55A9F3"/>
<path d="M142.953 91.7601C145.603 97.6716 143.051 104.646 137.227 107.336C136.605 107.635 135.983 107.834 135.362 108L133.889 104.745C131.631 99.7306 133.824 93.786 138.765 91.4945L141.971 90C142.331 90.5646 142.658 91.1291 142.953 91.7601Z" fill="#55A9F3"/>
<path d="M163.336 135.773C163.601 136.395 163.834 137.017 164 137.638L160.745 139.111C155.731 141.369 149.786 139.176 147.494 134.235L146 131.029C146.531 130.669 147.129 130.342 147.76 130.047C153.672 127.397 160.646 129.949 163.336 135.773Z" fill="#55A9F3"/>
<path d="M156.745 142C151.954 142 147.62 139.186 145.665 134.9L132.075 104.964C131.358 103.393 131 101.725 131 99.9908C131.033 95.1486 133.803 90.7972 138.072 88.8668L205.302 58.0797C206.898 57.3599 208.561 57 210.288 57C215.046 57 219.38 59.781 221.335 64.1324L234.925 94.0689C235.642 95.6393 236 97.3406 236 99.0747C236 103.884 233.23 108.236 228.896 110.199L161.666 140.986C160.134 141.64 158.439 142 156.745 142ZM207.192 62.2675L139.962 93.0547C137.322 94.2652 135.595 96.948 135.562 99.9253C135.562 101.038 135.791 102.085 136.247 103.066L149.836 133.003C151.042 135.686 153.747 137.42 156.68 137.42C157.788 137.42 158.831 137.191 159.808 136.732L227.038 105.945C229.71 104.735 231.438 102.019 231.438 99.042C231.438 97.9623 231.21 96.9153 230.753 95.9338L217.164 66.03C215.958 63.3472 213.253 61.6132 210.288 61.6132C209.212 61.6132 208.202 61.8422 207.192 62.2675Z" fill="#0E5FAA"/>
<path fill-rule="evenodd" clip-rule="evenodd" d="M203 211H244V221.667C244 224.611 234.806 227 223.516 227C212.194 227 203.032 224.611 203.032 221.667V211H203Z" fill="#55A9F3"/>
<path d="M223.984 230C221.64 230 201 229.778 201 222.583V212.25C201 211.014 202.042 210 203.311 210H244.689C245.958 210 247 211.014 247 212.25V222.583C246.935 229.81 226.328 230 223.984 230ZM205.59 222.361C206.697 223.502 213.045 225.563 223.984 225.563C234.922 225.563 241.27 223.502 242.377 222.361V214.532H205.59V222.361Z" fill="#0E5FAA"/>
<path fill-rule="evenodd" clip-rule="evenodd" d="M223.5 205C234.832 205 244 207.239 244 210C244 212.761 234.799 215 223.5 215C212.169 215 203 212.761 203 210C202.968 207.239 212.169 205 223.5 205Z" fill="#98B5FF"/>
<path d="M224 217C221.654 217 201 216.79 201 210.015C201 203.21 221.654 203 224 203C226.346 203 247 203.21 247 210.015C246.967 216.82 226.346 217 224 217ZM205.919 210.015C207.646 211.124 213.836 212.773 224 212.773C234.164 212.773 240.354 211.094 242.081 210.015C240.354 208.906 234.164 207.257 224 207.257C213.836 207.227 207.613 208.906 205.919 210.015Z" fill="#0E5FAA"/>
<path fill-rule="evenodd" clip-rule="evenodd" d="M203 199H244V209.667C244 212.611 234.806 215 223.516 215C212.194 215 203.032 212.611 203.032 209.667V199H203Z" fill="#55A9F3"/>
<path d="M223.984 217C221.64 217 201 216.778 201 209.583V199.25C201 198.014 202.042 197 203.311 197H244.689C245.958 197 247 198.014 247 199.25V209.583C246.935 216.778 226.328 217 223.984 217ZM205.59 209.33C206.697 210.471 213.045 212.531 223.984 212.531C234.922 212.531 241.27 210.471 242.377 209.33V201.501H205.59V209.33Z" fill="#0E5FAA"/>
<path fill-rule="evenodd" clip-rule="evenodd" d="M223.5 192C234.832 192 244 194.463 244 197.5C244 200.537 234.799 203 223.5 203C212.169 203 203 200.537 203 197.5C202.968 194.463 212.169 192 223.5 192Z" fill="#98B5FF"/>
<path d="M224 205C221.654 205 201 204.775 201 197.516C201 190.225 221.654 190 224 190C226.346 190 247 190.225 247 197.516C246.967 204.775 226.346 205 224 205ZM205.919 197.484C207.646 198.672 213.836 200.439 224 200.439C234.164 200.439 240.354 198.64 242.081 197.484C240.354 196.295 234.164 194.529 224 194.529C213.836 194.529 207.613 196.295 205.919 197.484Z" fill="#0E5FAA"/>
<path fill-rule="evenodd" clip-rule="evenodd" d="M203 187H244V198.333C244 201.462 234.806 204 223.516 204C212.194 204 203.032 201.462 203.032 198.333V187H203Z" fill="#55A9F3"/>
<path d="M223.984 205C221.64 205 201 204.767 201 197.212V186.363C201 185.065 202.042 184 203.311 184H244.689C245.958 184 247 185.065 247 186.363V197.212C246.935 204.8 226.328 205 223.984 205ZM205.59 196.979C206.697 198.178 213.045 200.341 223.984 200.341C234.922 200.341 241.27 198.178 242.377 196.979V188.759H205.59V196.979Z" fill="#0E5FAA"/>
<path fill-rule="evenodd" clip-rule="evenodd" d="M223.5 180C234.832 180 244 182.239 244 185C244 187.761 234.799 190 223.5 190C212.169 190 203 187.761 203 185C202.968 182.239 212.169 180 223.5 180Z" fill="#BBDFFF"/>
<path d="M224 193C221.654 193 201 192.775 201 185.516C201 178.225 221.654 178 224 178C226.346 178 247 178.225 247 185.516C246.967 192.807 226.346 193 224 193ZM205.919 185.516C207.646 186.705 213.836 188.471 224 188.471C234.164 188.471 240.354 186.672 242.081 185.516C240.354 184.328 234.164 182.561 224 182.561C213.836 182.529 207.613 184.328 205.919 185.516Z" fill="#0E5FAA"/>
<path fill-rule="evenodd" clip-rule="evenodd" d="M24 184C35.5994 184 45 193.624 45 205.5C45 217.376 35.5994 227 24 227C12.4006 227 3 217.376 3 205.5C3.03187 193.624 12.4325 184 24 184Z" fill="#BBDFFF"/>
<path d="M23.5 230C10.5411 230 0 219.459 0 206.5C0 193.541 10.5411 183 23.5 183C36.4588 183 46.9999 193.541 46.9999 206.5C47.0322 219.459 36.491 230 23.5 230ZM23.5 187.545C13.0555 187.545 4.54526 196.056 4.54526 206.5C4.54526 216.944 13.0555 225.455 23.5 225.455C33.9444 225.455 42.4547 216.944 42.4547 206.5C42.4869 196.023 33.9766 187.545 23.5 187.545Z" fill="#0E5FAA"/>
<path d="M24 222C22.9014 222 22 220.965 22 219.703V215.141C22 213.879 22.9014 212.843 24 212.843C25.0986 212.843 26 213.879 26 215.141V219.703C26 220.965 25.0986 222 24 222ZM24 199.157C22.9014 199.157 22 198.121 22 196.859V192.297C22 191.035 22.9014 190 24 190C25.0986 190 26 191.035 26 192.297V196.859C26 198.121 25.0986 199.157 24 199.157Z" fill="#0E5FAA"/>
<path fill-rule="evenodd" clip-rule="evenodd" d="M31 197C31 197 25.7376 197 21.6667 197C20.4421 197 19.2506 197.479 18.357 198.309C17.4965 199.138 17 200.287 17 201.5C17 202.713 17.4965 203.83 18.357 204.691C19.2175 205.521 20.409 206 21.6667 206C23.156 206 24.844 206 26.3333 206C27.5579 206 28.7494 206.479 29.643 207.309C30.5035 208.138 31 209.287 31 210.5C31 211.713 30.5035 212.83 29.643 213.691C28.7825 214.521 27.591 215 26.3333 215C22.2624 215 17 215 17 215L31 197Z" fill="#55A9F3"/>
<path d="M25.246 217H16.2619C15.0195 217 14 215.96 14 214.693C14 213.427 15.0195 212.387 16.2619 212.387H25.246C25.8513 212.387 26.4248 212.127 26.8389 211.705C27.2531 211.282 27.508 210.698 27.508 210.081C27.508 209.463 27.285 208.879 26.8389 208.456C26.4248 208.034 25.8513 207.774 25.246 207.774H20.754C18.9381 207.774 17.2496 207.059 15.9752 205.76C14.7009 204.46 14 202.739 14 200.887C14 199.035 14.7009 197.314 15.9752 196.014C17.2496 194.715 18.9381 194 20.754 194H29.7381C30.9805 194 32 195.04 32 196.306C32 197.573 30.9805 198.613 29.7381 198.613H20.754C20.1487 198.613 19.5752 198.873 19.1611 199.295C18.7469 199.718 18.492 200.302 18.492 200.919C18.492 201.537 18.715 202.121 19.1611 202.544C19.5752 202.966 20.1487 203.226 20.754 203.226H25.246C27.0619 203.226 28.7504 203.941 30.0248 205.24C31.2991 206.54 32 208.261 32 210.113C32 211.965 31.2991 213.686 30.0248 214.986C28.7504 216.285 27.0619 217 25.246 217Z" fill="#0E5FAA"/>
</svg>
