<svg width="159" height="108" viewBox="0 0 159 108" fill="none" xmlns="http://www.w3.org/2000/svg">
<path d="M19.8137 91.7183H120.784L127.261 96.8209C129.497 98.5828 128.251 102.177 125.404 102.177H37.1264C32.9874 102.177 29.0095 100.573 26.0281 97.7025L19.8137 91.7183Z" fill="#C3E3FF"/>
<path fill-rule="evenodd" clip-rule="evenodd" d="M50.2754 49.915C46.8907 42.7696 39.5743 37.8137 31.1125 37.8137C21.6764 37.8137 13.6762 43.9577 10.9411 52.4269C4.83842 52.8003 -0.0676715 57.6543 0.000706155 63.985C0.000706155 64.579 62.7543 64.3923 62.7543 63.985C62.7885 54.4126 59.4722 49.8301 51.848 49.8301C51.3181 49.8301 50.7882 49.864 50.2754 49.915Z" fill="#E1F1FF"/>
<path d="M25.5418 42.2759C25.1066 42.523 24.5707 42.5927 24.0308 42.4302L21.7558 41.7454L21.1775 44.0498C20.903 45.1434 19.839 45.7473 18.7594 45.4223C17.6797 45.0973 17.047 43.9826 17.3215 42.889L17.8998 40.5846L15.6248 39.8998C14.5452 39.5748 13.9125 38.4602 14.1869 37.3666C14.4614 36.2729 15.5254 35.669 16.605 35.994L18.8801 36.6789L19.4584 34.3745C19.7329 33.2809 20.7968 32.677 21.8765 33.002C22.9562 33.327 23.5888 34.4416 23.3144 35.5352L22.736 37.8396L25.0111 38.5244C26.0907 38.8494 26.7234 39.9641 26.4489 41.0577C26.3117 41.6045 25.9771 42.0289 25.5418 42.2759Z" fill="white"/>
<path d="M32.2125 32.438L20.9283 90.1554C20.5748 91.9821 21.7975 93.47 23.6536 93.47H51.6579L32.2125 32.438Z" fill="#0088FF"/>
<path fill-rule="evenodd" clip-rule="evenodd" d="M32.4628 36.6225L21.9446 90.3478C21.7236 91.4968 22.4897 92.4249 23.6535 92.4249H35.2323C35.8068 92.4249 36.2782 92.8963 36.2782 93.4708C36.2782 94.0454 35.8068 94.5168 35.2323 94.5168H23.6535C21.1049 94.5168 19.4108 92.4691 19.897 89.9648L31.1959 32.2326C31.2843 31.7612 31.682 31.4224 32.1534 31.3929C32.6248 31.3634 33.0668 31.6581 33.1994 32.1147L52.6448 93.1467C52.8215 93.6918 52.5122 94.2811 51.9671 94.4578C51.4221 94.6346 50.8328 94.3253 50.656 93.7802L32.4628 36.6225Z" fill="#022F56"/>
<path d="M32.5066 32.438L35.173 46.094L43.7908 90.1554C44.1444 91.9821 45.9563 93.47 47.8125 93.47H120.571C122.427 93.47 123.65 91.9821 123.296 90.1554L114.693 46.094L112.012 32.438H32.5066Z" fill="white"/>
<path d="M32.5066 32.438L35.173 46.094H114.693L112.012 32.438H32.5066Z" fill="#C3E3FF"/>
<path d="M81.0029 50.6025C80.0159 50.6025 79.3529 51.398 79.5445 52.3703L80.4578 57.0696C80.6493 58.0419 81.6068 58.8374 82.6086 58.8374H90.976C91.963 58.8374 92.6259 58.0419 92.4344 57.0696L91.5211 52.3703C91.3295 51.398 90.372 50.6025 89.3703 50.6025H81.0029Z" fill="#C3E3FF"/>
<path d="M63.6049 50.6316C62.6179 50.6316 61.955 51.4271 62.1465 52.3994L63.0599 57.0987C63.2514 58.0709 64.2089 58.8664 65.2106 58.8664H73.5928C74.5798 58.8664 75.2427 58.0709 75.0512 57.0987L74.1378 52.3994C73.9463 51.4271 72.9888 50.6316 71.9871 50.6316H63.6049Z" fill="#C3E3FF"/>
<path d="M46.2656 50.6316C45.2786 50.6316 44.6156 51.4271 44.8072 52.3994L45.7205 57.0987C45.912 58.0709 46.8695 58.8664 47.8713 58.8664H56.2387C57.2257 58.8664 57.8886 58.0709 57.6971 57.0987L56.7837 52.3994C56.5922 51.4271 55.6347 50.6316 54.633 50.6316H46.2656Z" fill="#0088FF"/>
<path d="M48.3576 63.3589C47.3706 63.3589 46.7077 64.1544 46.8992 65.1266L47.8125 69.826C48.004 70.7982 48.9616 71.5937 49.9633 71.5937H58.3307C59.3177 71.5937 59.9806 70.7982 59.7891 69.826L58.8758 65.1266C58.6843 64.1544 57.7267 63.3589 56.725 63.3589H48.3576Z" fill="#C3E3FF"/>
<path d="M83.9191 63.3589C82.9321 63.3589 82.2692 64.1544 82.4607 65.1266L83.3741 69.826C83.5656 70.7982 84.5231 71.5937 85.5248 71.5937H93.8922C94.8792 71.5937 95.5422 70.7982 95.3507 69.826L94.4373 65.1266C94.2458 64.1544 93.2883 63.3589 92.2865 63.3589H83.9191Z" fill="#C3E3FF"/>
<path d="M99.1367 50.6025C98.1497 50.6025 97.4867 51.398 97.6782 52.3703L98.5916 57.0696C98.7831 58.0419 99.7406 58.8374 100.742 58.8374H109.11C110.097 58.8374 110.76 58.0419 110.568 57.0696L109.655 52.3703C109.463 51.398 108.506 50.6025 107.504 50.6025H99.1367Z" fill="#C3E3FF"/>
<path d="M65.9762 63.3589C64.9892 63.3589 64.3263 64.1544 64.5178 65.1266L65.4312 69.826C65.6227 70.7982 66.5802 71.5937 67.582 71.5937H75.9494C76.9364 71.5937 77.5993 70.7982 77.4078 69.826L76.4944 65.1266C76.3029 64.1544 75.3454 63.3589 74.3437 63.3589H65.9762Z" fill="#C3E3FF"/>
<path d="M86.5412 77.531C85.5542 77.531 84.8913 78.3265 85.0828 79.2988L85.9961 83.9981C86.1876 84.9703 87.1452 85.7658 88.1469 85.7658H96.5143C97.5013 85.7658 98.1642 84.9703 97.9727 83.9981L97.0594 79.2988C96.8679 78.3265 95.9103 77.531 94.9086 77.531H86.5412Z" fill="#C3E3FF"/>
<path d="M104.484 77.531C103.497 77.531 102.834 78.3265 103.026 79.2988L103.939 83.9981C104.131 84.9703 105.088 85.7658 106.09 85.7658H114.457C115.444 85.7658 116.107 84.9703 115.916 83.9981L115.002 79.2988C114.811 78.3265 113.853 77.531 112.851 77.531H104.484Z" fill="#C3E3FF"/>
<path d="M68.6135 77.531C67.6265 77.531 66.9635 78.3265 67.1551 79.2988L68.0684 83.9981C68.2599 84.9703 69.2174 85.7658 70.2192 85.7658H78.5866C79.5736 85.7658 80.2365 84.9703 80.045 83.9981L79.1316 79.2988C78.9401 78.3265 77.9826 77.531 76.9809 77.531H68.6135Z" fill="#C3E3FF"/>
<path d="M50.6415 77.531C49.6545 77.531 48.9916 78.3265 49.1831 79.2988L50.0965 83.9981C50.288 84.9703 51.2455 85.7658 52.2473 85.7658H60.6294C61.6164 85.7658 62.2793 84.9703 62.0878 83.9981L61.1745 79.2988C60.9829 78.3265 60.0254 77.531 59.0237 77.531H50.6415Z" fill="#C3E3FF"/>
<path d="M101.848 63.4036C100.861 63.4036 100.198 64.1991 100.39 65.1713L101.303 69.8706C101.495 70.8429 102.452 71.6384 103.454 71.6384H111.821C112.808 71.6384 113.471 70.8429 113.28 69.8706L112.366 65.1713C112.175 64.1991 111.217 63.4036 110.215 63.4036H101.848Z" fill="#C3E3FF"/>
<path fill-rule="evenodd" clip-rule="evenodd" d="M111.157 33.4691H107.577C107.003 33.4691 106.532 32.9976 106.532 32.4231C106.532 31.8486 107.003 31.3772 107.577 31.3772H112.012C112.512 31.3772 112.94 31.7307 113.028 32.2169L115.694 45.8729L124.312 89.9343C124.798 92.4387 123.119 94.4863 120.571 94.4863H47.8271C45.4995 94.4863 43.2309 92.6155 42.789 90.3321L41.3748 83.099C41.2716 82.5392 41.6252 81.9941 42.1997 81.8763C42.7595 81.7732 43.3046 82.1267 43.4224 82.7013L44.8366 89.9343C45.1018 91.2896 46.4571 92.4092 47.8418 92.4092H120.6C121.764 92.4092 122.53 91.4811 122.309 90.3321L113.662 46.2853L111.157 33.4691Z" fill="#022F56"/>
<path fill-rule="evenodd" clip-rule="evenodd" d="M33.7737 33.4695L35.1732 40.6142C35.2763 41.174 34.908 41.719 34.3482 41.8369C33.7884 41.94 33.2434 41.5717 33.1255 41.0119L31.4903 32.6298C31.4314 32.3204 31.5051 32.0111 31.7113 31.7753C31.9028 31.5249 32.1975 31.3923 32.5068 31.3923H84.9505C85.525 31.3923 85.9964 31.8637 85.9964 32.4383C85.9964 33.0128 85.525 33.4842 84.9505 33.4842L33.7737 33.4695Z" fill="#022F56"/>
<path fill-rule="evenodd" clip-rule="evenodd" d="M94.2561 8.794C96.7719 3.60322 102.208 0 108.506 0C115.521 0 121.471 4.45943 123.51 10.6313C128.046 10.8989 131.7 14.4307 131.645 19.0329C131.645 19.461 84.9823 19.3361 84.9823 19.0329C84.9456 12.0761 87.4064 8.74049 93.0808 8.74049C93.4848 8.74049 93.8705 8.75833 94.2561 8.794Z" fill="#E1F1FF"/>
<path fill-rule="evenodd" clip-rule="evenodd" d="M132.57 50.4791C134.348 46.8023 138.19 44.25 142.643 44.25C147.602 44.25 151.808 47.4088 153.249 51.7805C156.455 51.97 159.039 54.4718 159 57.7316C159 58.0349 126.014 57.9464 126.014 57.7316C125.988 52.8039 127.727 50.4412 131.739 50.4412C132.024 50.4412 132.297 50.4538 132.57 50.4791Z" fill="#99D0FF"/>
<path d="M133.594 53.1C133.272 53.1 132.951 52.9592 132.7 52.6777L131.645 51.4909L130.591 52.6777C130.09 53.2408 129.303 53.2408 128.803 52.6777C128.302 52.1145 128.302 51.2295 128.803 50.6663L129.858 49.4796L128.803 48.2929C128.302 47.7297 128.302 46.8447 128.803 46.2815C129.303 45.7183 130.09 45.7183 130.591 46.2815L131.645 47.4682L132.7 46.2815C133.201 45.7183 133.988 45.7183 134.488 46.2815C134.989 46.8447 134.989 47.7297 134.488 48.2929L133.433 49.4796L134.488 50.6663C134.989 51.2295 134.989 52.1145 134.488 52.6777C134.238 52.9592 133.916 53.1 133.594 53.1Z" fill="white"/>
<path d="M69.5592 107.005C69.1167 107.005 68.6742 106.832 68.33 106.488L66.8796 105.038L65.4292 106.488C64.7408 107.177 63.6592 107.177 62.9708 106.488C62.2825 105.8 62.2825 104.718 62.9708 104.03L64.4213 102.58L62.9708 101.129C62.2825 100.441 62.2825 99.3591 62.9708 98.6708C63.6592 97.9825 64.7408 97.9825 65.4292 98.6708L66.8796 100.121L68.33 98.6708C69.0183 97.9825 70.1 97.9825 70.7883 98.6708C71.4767 99.3591 71.4767 100.441 70.7883 101.129L69.3379 102.58L70.7883 104.03C71.4767 104.718 71.4767 105.8 70.7883 106.488C70.4442 106.832 70.0017 107.005 69.5592 107.005Z" fill="white"/>
</svg>
