<svg width="158" height="114" viewBox="0 0 158 114" fill="none" xmlns="http://www.w3.org/2000/svg">
<path d="M20.7012 98.3503H124.503L131.345 103.737C133.583 105.499 132.337 109.094 129.489 109.094H38.3148C34.1779 109.094 30.2019 107.492 27.2209 104.624L20.7012 98.3503Z" fill="#C3E3FF"/>
<path fill-rule="evenodd" clip-rule="evenodd" d="M26.5051 60.1246C24.7207 56.3433 20.8635 53.7207 16.4025 53.7207C11.4278 53.7207 7.21009 56.972 5.76815 61.4539C2.55081 61.6515 -0.0356763 64.2202 0.000372284 67.5703C0.000372284 67.8847 33.084 67.7859 33.084 67.5703C33.102 62.5047 31.3536 60.0797 27.3342 60.0797C27.0548 60.0797 26.7755 60.0976 26.5051 60.1246Z" fill="#E1F1FF"/>
<path fill-rule="evenodd" clip-rule="evenodd" d="M116.911 58.172C119.676 52.6176 125.65 48.762 132.572 48.762C140.281 48.762 146.819 53.5338 149.059 60.138C154.044 60.4244 158.06 64.2037 157.999 69.1282C157.999 69.5863 106.72 69.4527 106.72 69.1282C106.68 61.6841 109.384 58.1148 115.62 58.1148C116.064 58.1148 116.488 58.1339 116.911 58.172Z" fill="#99D0FF"/>
<path d="M26.3612 47.9328C26.0621 48.1025 25.6937 48.1504 25.3227 48.0388L23.7589 47.5684L23.3614 49.1511C23.1728 49.9022 22.4415 50.317 21.6994 50.0938C20.9573 49.8705 20.5224 49.105 20.7111 48.3539L21.1086 46.7712L19.5449 46.3008C18.8028 46.0776 18.3679 45.3121 18.5566 44.561C18.7452 43.8099 19.4765 43.3951 20.2186 43.6183L21.7823 44.0887L22.1799 42.506C22.3685 41.7549 23.0998 41.3401 23.8419 41.5633C24.584 41.7865 25.0189 42.5521 24.8302 43.3032L24.4327 44.8859L25.9964 45.3562C26.7385 45.5794 27.1734 46.345 26.9847 47.0961C26.8904 47.4716 26.6604 47.7631 26.3612 47.9328Z" fill="white"/>
<path d="M33.4471 37.4551L21.8465 96.7456C21.4831 98.6221 22.74 100.15 24.6482 100.15H53.4377L33.4471 37.4551Z" fill="#0088FF"/>
<path fill-rule="evenodd" clip-rule="evenodd" d="M33.7044 41.7531L22.8913 96.9427C22.6642 98.123 23.4517 99.0764 24.6481 99.0764H36.5516C37.1422 99.0764 37.6268 99.5606 37.6268 100.151C37.6268 100.741 37.1422 101.225 36.5516 101.225H24.6481C22.0281 101.225 20.2865 99.1218 20.7863 96.5492L32.402 37.2436C32.4929 36.7593 32.9018 36.4113 33.3864 36.381C33.871 36.3507 34.3253 36.6534 34.4616 37.1225L54.4522 99.8179C54.634 100.378 54.3159 100.983 53.7556 101.165C53.1952 101.346 52.5895 101.029 52.4077 100.469L33.7044 41.7531Z" fill="#022F56"/>
<path d="M33.7493 37.4551L36.4904 51.4832L45.3499 96.7456C45.7133 98.6221 47.5761 100.15 49.4843 100.15H124.282C126.191 100.15 127.448 98.6221 127.084 96.7456L118.24 51.4832L115.484 37.4551H33.7493Z" fill="white"/>
<path d="M33.7493 37.4551L36.4904 51.4832H118.24L115.484 37.4551H33.7493Z" fill="#C3E3FF"/>
<path d="M83.6055 56.114C82.5908 56.114 81.9093 56.9312 82.1062 57.93L83.0451 62.7573C83.242 63.7561 84.2264 64.5733 85.2562 64.5733H93.8582C94.8729 64.5733 95.5544 63.7561 95.3575 62.7573L94.4186 57.93C94.2217 56.9312 93.2373 56.114 92.2075 56.114H83.6055Z" fill="#C3E3FF"/>
<path d="M65.7197 56.144C64.7051 56.144 64.0236 56.9612 64.2204 57.96L65.1594 62.7874C65.3563 63.7861 66.3406 64.6033 67.3705 64.6033H75.9876C77.0023 64.6033 77.6838 63.7861 77.4869 62.7874L76.548 57.96C76.3511 56.9612 75.3667 56.144 74.3369 56.144H65.7197Z" fill="#C3E3FF"/>
<path d="M47.894 56.144C46.8794 56.144 46.1979 56.9612 46.3947 57.96L47.3337 62.7874C47.5306 63.7861 48.515 64.6033 49.5448 64.6033H58.1468C59.1615 64.6033 59.843 63.7861 59.6461 62.7874L58.7071 57.96C58.5103 56.9612 57.5259 56.144 56.4961 56.144H47.894Z" fill="#0088FF"/>
<path d="M50.0449 69.2183C49.0302 69.2183 48.3487 70.0354 48.5456 71.0342L49.4846 75.8616C49.6815 76.8603 50.6658 77.6775 51.6957 77.6775H60.2977C61.3123 77.6775 61.9938 76.8603 61.797 75.8616L60.858 71.0342C60.6611 70.0354 59.6768 69.2183 58.6469 69.2183H50.0449Z" fill="#0088FF"/>
<path d="M86.6035 69.2183C85.5888 69.2183 84.9073 70.0354 85.1042 71.0342L86.0432 75.8616C86.24 76.8603 87.2244 77.6775 88.2542 77.6775H96.8563C97.8709 77.6775 98.5524 76.8603 98.3556 75.8616L97.4166 71.0342C97.2197 70.0354 96.2353 69.2183 95.2055 69.2183H86.6035Z" fill="#C3E3FF"/>
<path d="M102.248 56.114C101.233 56.114 100.551 56.9312 100.748 57.93L101.687 62.7573C101.884 63.7561 102.868 64.5733 103.898 64.5733H112.5C113.515 64.5733 114.196 63.7561 114 62.7573L113.061 57.93C112.864 56.9312 111.879 56.114 110.85 56.114H102.248Z" fill="#C3E3FF"/>
<path d="M68.1577 69.2183C67.143 69.2183 66.4615 70.0354 66.6584 71.0342L67.5974 75.8616C67.7942 76.8603 68.7786 77.6775 69.8085 77.6775H78.4105C79.4251 77.6775 80.1066 76.8603 79.9098 75.8616L78.9708 71.0342C78.7739 70.0354 77.7895 69.2183 76.7597 69.2183H68.1577Z" fill="#C3E3FF"/>
<path d="M89.2993 83.7764C88.2846 83.7764 87.6031 84.5935 87.8 85.5923L88.739 90.4197C88.9359 91.4185 89.9202 92.2356 90.9501 92.2356H99.5521C100.567 92.2356 101.248 91.4185 101.051 90.4197L100.112 85.5923C99.9155 84.5935 98.9311 83.7764 97.9013 83.7764H89.2993Z" fill="#C3E3FF"/>
<path d="M107.745 83.7764C106.73 83.7764 106.049 84.5935 106.246 85.5923L107.185 90.4197C107.382 91.4185 108.366 92.2356 109.396 92.2356H117.998C119.013 92.2356 119.694 91.4185 119.497 90.4197L118.558 85.5923C118.361 84.5935 117.377 83.7764 116.347 83.7764H107.745Z" fill="#C3E3FF"/>
<path d="M70.8687 83.7764C69.854 83.7764 69.1725 84.5935 69.3694 85.5923L70.3083 90.4197C70.5052 91.4185 71.4896 92.2356 72.5194 92.2356H81.1214C82.1361 92.2356 82.8176 91.4185 82.6207 90.4197L81.6817 85.5923C81.4849 84.5935 80.5005 83.7764 79.4707 83.7764H70.8687Z" fill="#C3E3FF"/>
<path d="M52.3931 83.7764C51.3784 83.7764 50.6969 84.5935 50.8938 85.5923L51.8327 90.4197C52.0296 91.4185 53.014 92.2356 54.0438 92.2356H62.661C63.6756 92.2356 64.3571 91.4185 64.1603 90.4197L63.2213 85.5923C63.0244 84.5935 62.04 83.7764 61.0102 83.7764H52.3931Z" fill="#0088FF"/>
<path d="M105.035 69.2639C104.02 69.2639 103.339 70.0811 103.536 71.0799L104.475 75.9072C104.672 76.906 105.656 77.7232 106.686 77.7232H115.288C116.303 77.7232 116.984 76.906 116.787 75.9072L115.848 71.0799C115.651 70.0811 114.667 69.2639 113.637 69.2639H105.035Z" fill="#C3E3FF"/>
<path fill-rule="evenodd" clip-rule="evenodd" d="M114.605 38.5136H110.925C110.334 38.5136 109.85 38.0294 109.85 37.4392C109.85 36.849 110.334 36.3647 110.925 36.3647H115.484C115.998 36.3647 116.438 36.7279 116.529 37.2273L119.27 51.2555L128.129 96.5178C128.629 99.0904 126.902 101.194 124.282 101.194H49.4995C47.1066 101.194 44.7744 99.272 44.3201 96.9264L42.8662 89.4962C42.7602 88.9211 43.1237 88.3612 43.7143 88.2402C44.2898 88.1342 44.8501 88.4974 44.9713 89.0876L46.4251 96.5178C46.6977 97.91 48.091 99.0602 49.5146 99.0602H124.313C125.509 99.0602 126.297 98.1068 126.069 96.9264L117.18 51.6792L114.605 38.5136Z" fill="#022F56"/>
<path fill-rule="evenodd" clip-rule="evenodd" d="M35.0519 38.5141L36.4906 45.8535C36.5966 46.4286 36.218 46.9885 35.6425 47.1096C35.067 47.2155 34.5067 46.8372 34.3855 46.2621L32.7045 37.6515C32.6439 37.3337 32.7197 37.016 32.9317 36.7738C33.1286 36.5166 33.4314 36.3804 33.7495 36.3804H87.6635C88.2541 36.3804 88.7388 36.8646 88.7388 37.4548C88.7388 38.045 88.2541 38.5292 87.6635 38.5292L35.0519 38.5141Z" fill="#022F56"/>
<path fill-rule="evenodd" clip-rule="evenodd" d="M77.688 12.4213C81.2554 5.08946 88.9631 0 97.8947 0C107.842 0 116.279 6.29884 119.169 15.0164C125.601 15.3944 130.783 20.383 130.705 26.8834C130.705 27.4881 64.5379 27.3118 64.5379 26.8834C64.4858 17.0572 67.9752 12.3457 76.0214 12.3457C76.5943 12.3457 77.1411 12.3709 77.688 12.4213Z" fill="#E1F1FF"/>
<path d="M143.461 54.5471C143.13 54.5471 142.8 54.4025 142.542 54.1132L141.458 52.8942L140.373 54.1132C139.859 54.6918 139.05 54.6918 138.535 54.1132C138.021 53.5347 138.021 52.6256 138.535 52.0471L139.62 50.828L138.535 49.609C138.021 49.0304 138.021 48.1213 138.535 47.5428C139.05 46.9643 139.859 46.9643 140.373 47.5428L141.458 48.7618L142.542 47.5428C143.057 46.9643 143.866 46.9643 144.38 47.5428C144.895 48.1213 144.895 49.0304 144.38 49.609L143.296 50.828L144.38 52.0471C144.895 52.6256 144.895 53.5347 144.38 54.1132C144.123 54.4025 143.792 54.5471 143.461 54.5471Z" fill="white"/>
<path d="M121.727 111.402C121.422 111.564 121.053 111.607 120.69 111.496L119.158 111.026L118.688 112.556C118.465 113.283 117.719 113.678 116.992 113.455C116.265 113.232 115.869 112.486 116.092 111.76L116.562 110.229L115.031 109.76C114.304 109.537 113.908 108.791 114.131 108.064C114.354 107.338 115.101 106.943 115.828 107.166L117.359 107.635L117.829 106.105C118.053 105.379 118.799 104.983 119.526 105.206C120.253 105.429 120.649 106.175 120.425 106.901L119.955 108.432L121.487 108.902C122.214 109.125 122.61 109.87 122.386 110.597C122.275 110.96 122.033 111.24 121.727 111.402Z" fill="white"/>
</svg>
